<?xml version="1.0" encoding="UTF-8"?>
<svg id="Layer_2" data-name="Layer 2" xmlns="http://www.w3.org/2000/svg" viewBox="0 0 391.47 243.98">
  <defs>
    <style>
      .cls-1 {
        fill: #165677;
      }

      .cls-2 {
        fill: #a2d6da;
      }
    </style>
  </defs>
  <g id="Layer_1-2" data-name="Layer 1">
    <path class="cls-1" d="M282.23,56.63c0-17.16.1-34.32-.08-51.47-.04-3.74.73-5.22,4.87-5.16,15.99.24,31.98.14,47.97.07,4.25-.02,7.36,1.81,10.7,4.4,8.67,6.76,11.7,15.05,10.97,26.04-.92,13.89-.22,13.95,13.58,14.58,3.63.17,6.47,1.64,9.4,3.9,9.07,7.02,12.73,15.66,11.66,27.28-.99,10.74-.3,21.64-.17,32.46.05,4.2-1.62,6.12-5.88,6.12-32.48-.04-64.97-.04-97.45,0-4.37,0-5.66-2.13-5.63-6.26.14-17.32.06-34.65.06-51.97ZM296.41,57.17c0,12,.04,23.99-.02,35.99-.02,3.58,1.13,5.69,5.13,5.68,22.66-.06,45.32-.05,67.97,0,3.54,0,5.21-1.53,5.24-5.08.05-5.66.29-11.31.31-16.97.03-9.68-6.16-15.9-15.84-15.94-11.83-.04-23.66.13-35.48-.1-3.47-.07-8.5,2.08-10.09-1.33-1.51-3.23,3.3-5.96,5.05-9.08,1.94-3.46,4.93-5.35,9-5.22,15.12.49,12.56-.92,12.69-13.25.11-9.93-6.04-16.08-16.06-16.19-7.16-.08-14.33.13-21.49-.07-4.76-.13-6.53,1.91-6.46,6.58.17,11.66.05,23.32.06,34.99Z"/>
    <path class="cls-1" d="M173.43,75.89c0,18.49.01,36.97,0,55.46,0,6.47-.75,7.14-7.7,7.14-7.33,0-8.02-.6-8.03-7.37-.02-21.32,0-42.64-.01-63.96,0-6.4-.9-7.3-7.13-7.31-10.83-.02-21.65,0-32.48-.03-1.26,0-2.88.5-3.6-.95-.71-1.43.64-2.4,1.33-3.5,4.91-7.8,11.36-12.13,21.14-10.68,4.73.7,9.65.02,14.47.15,4.17.12,6.24-1.52,6.01-5.88-.17-3.16.05-6.33-.05-9.49-.21-7.02-6.11-12.88-13.18-12.95-9.83-.1-19.65-.03-29.48-.02-10.05,0-15.9,5.85-15.92,16.09-.04,23.15.04,46.3-.08,69.45-.02,2.97,1.76,7.35-1.39,8.6-2.65,1.04-4.36-3.4-6.67-5.17-5.91-4.53-7.73-10.4-7.58-17.89.45-21.98.23-43.97.1-65.95-.02-4.31,1.26-7.77,4.36-10.69,2.06-1.94,4.1-3.91,6-6.01C96.64,1.47,100.43.03,105.06.06c15.82.1,31.65.01,47.47.05,9.97.02,20.88,10.89,20.89,20.82.03,18.32,0,36.64,0,54.96Z"/>
    <path class="cls-1" d="M391.08,194.52c0,14.15.02,28.29,0,42.44,0,5.62-1.05,6.67-6.7,6.68-17.31.03-34.62-.02-51.93.03-3.87.01-7.1-1.15-9.92-3.84-14.95-14.27-12.7-9.3-12.81-28.94-.1-17.81.08-35.62-.08-53.42-.05-5.16,1.47-9.21,5.18-12.91,13.96-13.92,8.08-11.96,29.3-12.11,8.82-.06,17.64.11,26.46-.06,4.49-.09,8.09,1.28,11.02,4.68,1.63,1.88,3.45,3.62,5.29,5.3,3.02,2.76,4.28,6.09,4.25,10.2-.11,13.98-.04,27.96-.04,41.94ZM375.06,192.37c0-9.48,0-18.97,0-28.45-.01-9.65-5.52-15.24-15.03-15.26-5.82-.01-11.65,0-17.47,0-9.38,0-15.63,6-15.75,15.34-.25,19.29-.34,38.58-.6,57.87-.06,4.14,1.57,6.25,5.81,6.24,12.48-.03,24.96-.01,37.44-.01,3.86,0,5.72-1.66,5.66-5.77-.16-9.98-.05-19.97-.05-29.95Z"/>
    <path class="cls-1" d="M182.23,51.12c0-14.99-.02-29.99.04-44.98,0-1.21-.77-2.87.82-3.58,1.52-.68,2.39.74,3.31,1.65,2.38,2.34,4.62,4.81,7.1,7.04,3.67,3.3,4.62,7.46,4.61,12.16-.06,19.82-.04,39.65-.02,59.47,0,10.21,5.52,15.75,15.66,15.75,11.99,0,23.99.01,35.98,0,6.11,0,6.93-.82,6.96-6.89.13-28.15.22-56.29.41-84.44.01-1.64-1.18-4.06,1.12-4.82,1.77-.59,2.62,1.68,3.92,2.63,8.43,6.16,10.82,14.3,10.54,24.71-.7,25.8-.23,51.64-.23,77.46,0,6.86-.64,7.54-7.36,7.55-20.66.02-41.32.04-61.97,0-10.31-.02-20.87-10.84-20.87-21.23,0-14.16,0-28.32,0-42.48Z"/>
    <path class="cls-1" d="M228.06,194.48c0-13.99.11-27.98-.06-41.97-.05-4.34,1.26-7.73,4.48-10.57,2.12-1.87,4.06-3.95,6.02-5.99,2.2-2.28,4.85-3.47,8.01-3.47,21.48-.01,42.97-.02,64.45.01,1.22,0,2.89-.54,3.39,1.22.37,1.31-.84,2.07-1.64,2.87-2.46,2.49-5.03,4.87-7.39,7.44-2.79,3.04-6.15,4.21-10.24,4.21-12.15-.01-24.3.16-36.45.26-8.61.07-14.5,5.74-14.53,14.27-.07,19.65.05,39.3-.07,58.95-.03,4.51,1.72,6.18,6.23,6.16,15.81-.07,31.63.12,47.44.25,1.45.01,3.44-.63,4.18.83.97,1.92-1.36,2.69-2.28,3.94-6.35,8.66-14.64,11.75-25.5,10.99-13.09-.92-26.3-.2-39.45-.23-5.8-.01-6.57-.82-6.58-6.7-.02-14.16,0-28.31,0-42.47Z"/>
    <path class="cls-1" d="M.23,57.69c0-16.66-.03-33.31.04-49.97,0-1.71-1.05-4.15.94-5,2.23-.96,3.33,1.62,4.76,2.85,1.39,1.19,2.54,2.66,3.92,3.84,4.07,3.48,5.67,7.7,5.61,13.18-.24,22.98-.11,45.97-.1,68.96,0,6.85.68,7.55,7.34,7.55,14.16.01,28.34.51,42.47-.16,10.54-.5,15.01,7.3,21.05,13.16,1.32,1.28.44,2.45-1.34,2.62-.99.09-2,.1-2.99.1-24.99,0-49.97.02-74.96,0-5.82,0-6.73-.94-6.74-6.65-.02-16.82,0-33.65,0-50.47Z"/>
    <path class="cls-2" d="M139.42,205.71c-5.17,0-10.33-.1-15.5.03-3.67.09-4.3-1.64-3.31-4.71,2.75-8.52,5.2-10.32,14.09-10.32,5.67,0,11.33,0,17,0q6.58,0,6.58-6.34c0-8.17-.04-16.33.01-24.5.03-5.72.83-6.29,8.05-6.28,6.68.01,6.91.19,6.94,6.05.03,8.33.28,16.68-.1,24.99-.22,4.7.97,6.47,5.96,6.2,7.64-.42,15.33-.15,22.99-.1,5.5.04,7.02,1.82,6.97,7.84-.06,6.01-1.1,7.13-6.86,7.15-7.67.03-15.34.23-22.99-.08-4.46-.18-6.38,1.01-6.04,5.83.39,5.64.14,11.33.07,16.99-.06,4.38-7.95,12.84-12.19,13.04-3.09.15-2.77-2.28-2.78-4.22-.04-8.83-.18-17.67.06-26.49.1-3.8-.81-5.46-4.95-5.14-4.64.36-9.33.08-13.99.08Z"/>
  </g>
</svg>